<mxfile host="app.diagrams.net" modified="2021-10-31T07:24:12.652Z" agent="5.0 (Macintosh; Intel Mac OS X -1_0_0) AppleWebKit/537.36 (KHTML, like Gecko) Chrome/78.0.3904.108 Safari/537.36" etag="ZjFPr_P5ONaV6t5HV2-j" version="15.4.1" type="github">
  <diagram id="O6IWrekTXRt0ee7cl5f0" name="第 1 页">
    <mxGraphModel dx="946" dy="499" grid="1" gridSize="10" guides="1" tooltips="1" connect="1" arrows="1" fold="1" page="1" pageScale="1" pageWidth="827" pageHeight="1169" math="0" shadow="0">
      <root>
        <mxCell id="0" />
        <mxCell id="1" parent="0" />
      </root>
    </mxGraphModel>
  </diagram>
</mxfile>
